# xmcd
#
# Track frame offsets:
#	150
#	20191
#	31919
#	32513
#	43959
#	44553
#	59263
#	71254
#	85782
#	106932
#	108342
#
# Disc length: 1582 seconds
#
# Revision: 0
# Processed by: cddbd v1.5.1PL2 Copyright (c) Steve Scherf et al.
# Submitted via: EasyCDDAExtractor 4.6.9.1
#
DISCID=8d062c0b
DTITLE=The Statler Brothers - Live - Sold Out
DYEAR=1989
DGENRE=Country
TTITLE0=The Official Historian On Shirley Jean Berrell
TTITLE1=A Hurt I Can't Handle
TTITLE2=Bed Of Rose's
TTITLE3=Foggy Mountain Breakdown
TTITLE4=When The Roll Is Called Up Yonder
TTITLE5=I'll Fly Away
TTITLE6=Walking Heartache In Disguise
TTITLE7=Tomorrow Never Comes
TTITLE8=Don't Wait On Me
TTITLE9=I'll Go To My Grave Loving You
TTITLE10=This Ole House
EXTD=
EXTT0=
EXTT1=
EXTT2=
EXTT3=
EXTT4=
EXTT5=
EXTT6=
EXTT7=
EXTT8=
EXTT9=
EXTT10=
PLAYORDER=
